HIERARCHY
ROOT Hips
{
	OFFSET 0.000000 0.000000 0.000000
	CHANNELS 6 Xposition Yposition Zposition Zrotation Yrotation Xrotation 
	JOINT LeftUpLeg_virtual
	{
		OFFSET 0.000000 0.000000 0.000000
		CHANNELS 3 Zrotation Yrotation Xrotation
		JOINT LeftUpLeg
		{
			OFFSET 10.205400 -3.823500 0.155100
			CHANNELS 3 Zrotation Yrotation Xrotation
			JOINT LeftLeg
			{
				OFFSET 0.708757 -12.982077 0.567790
				CHANNELS 3 Zrotation Yrotation Xrotation
				JOINT LeftFoot
				{
					OFFSET -0.708756 -10.717838 -2.184338
					CHANNELS 3 Zrotation Yrotation Xrotation
					JOINT LeftToeBase
					{
						OFFSET 0.108149 -7.191104 7.560241
						CHANNELS 3 Zrotation Yrotation Xrotation
						End Site
						{
							OFFSET 0.000000 0.000000 0.000000
						}
					}
				}
			}
		}
	}
	JOINT RightUpLeg_virtual
	{
		OFFSET 0.000000 0.000000 0.000000
		CHANNELS 3 Zrotation Yrotation Xrotation
		JOINT RightUpLeg
		{
			OFFSET -10.205400 -3.823500 0.005500
			CHANNELS 3 Zrotation Yrotation Xrotation
			JOINT RightLeg
			{
				OFFSET -0.708756 -12.982134 0.610632
				CHANNELS 3 Zrotation Yrotation Xrotation
				JOINT RightFoot
				{
					OFFSET 0.708754 -10.717769 -1.945823
					CHANNELS 3 Zrotation Yrotation Xrotation
					JOINT RightToeBase
					{
						OFFSET -0.108140 -7.191069 7.372968
						CHANNELS 3 Zrotation Yrotation Xrotation
						End Site
						{
							OFFSET 0.000000 0.000000 0.000000
						}
					}
				}
			}
		}
	}
	JOINT Spine_virtual
	{
		OFFSET 0.000000 0.000000 0.000000
		CHANNELS 3 Zrotation Yrotation Xrotation
		JOINT Spine
		{
			OFFSET 0.000000 6.876099 0.125700
			CHANNELS 3 Zrotation Yrotation Xrotation
			JOINT Spine1
			{
				OFFSET 0.000000 8.022060 0.146608
				CHANNELS 3 Zrotation Yrotation Xrotation
				JOINT Spine2
				{
					OFFSET 0.000000 9.168068 0.167552
					CHANNELS 3 Zrotation Yrotation Xrotation
					JOINT Neck_virtual
					{
						OFFSET 0.000000 0.000000 0.000000
						CHANNELS 3 Zrotation Yrotation Xrotation
						JOINT Neck
						{
							OFFSET 0.000000 10.314075 0.188496
							CHANNELS 3 Zrotation Yrotation Xrotation
							JOINT Head
							{
								OFFSET 0.000000 7.643700 -2.377400
								CHANNELS 3 Zrotation Yrotation Xrotation
								End Site
								{
									OFFSET 0.000000 0.000000 0.000000
								}
							}
						}
					}
					JOINT LeftShoulder_virtual
					{
						OFFSET 0.000000 0.000000 0.000000
						CHANNELS 3 Zrotation Yrotation Xrotation
						JOINT LeftShoulder
						{
							OFFSET 4.392200 8.824978 0.174984
							CHANNELS 3 Zrotation Yrotation Xrotation
							JOINT LeftArm
							{
								OFFSET 8.771219 -2.981674 -0.026999
								CHANNELS 3 Zrotation Yrotation Xrotation
								JOINT LeftForeArm
								{
									OFFSET 8.512804 0.000000 -0.000000
									CHANNELS 3 Zrotation Yrotation Xrotation
									JOINT LeftHand
									{
										OFFSET 18.484802 0.000000 -0.000000
										CHANNELS 3 Zrotation Yrotation Xrotation
										End Site
										{
											OFFSET 0.000000 0.000000 0.000000
										}
									}
								}
							}
						}
					}
					JOINT RightShoulder_virtual
					{
						OFFSET 0.000000 0.000000 0.000000
						CHANNELS 3 Zrotation Yrotation Xrotation
						JOINT RightShoulder
						{
							OFFSET -4.392200 8.824993 0.141379
							CHANNELS 3 Zrotation Yrotation Xrotation
							JOINT RightArm
							{
								OFFSET -8.771282 -2.981682 -0.094208
								CHANNELS 3 Zrotation Yrotation Xrotation
								JOINT RightForeArm
								{
									OFFSET -8.494598 0.000000 0.000000
									CHANNELS 3 Zrotation Yrotation Xrotation
									JOINT RightHand
									{
										OFFSET -18.483803 0.000000 0.000001
										CHANNELS 3 Zrotation Yrotation Xrotation
										End Site
										{
											OFFSET 0.000000 0.000000 0.000000
										}
									}
								}
							}
						}
					}
				}
			}
		}
	}
}
MOTION
Frames: 7
Frame Time: 0.033333
5.054560 36.207703 -1.984378 -179.870805 5.824391 -179.988708 -1.306104 -4.569023 9.605170 -2.473226 -1.069349 -25.887327 11.260007 6.552749 23.612519 -3.465328 0.823547 9.354795 0.000000 0.000000 0.000000 2.980438 -3.147742 8.259406 1.534058 -1.414889 -17.256114 -6.922204 4.441664 15.726482 4.822169 3.684926 3.951082 0.000000 0.000000 0.000000 1.082067 -0.906273 -2.073177 1.299884 2.474954 -4.280619 0.635265 -2.417226 13.924501 -0.004912 -0.016743 0.002211 0.487774 -0.762372 15.857251 -0.092954 -4.361465 13.990826 0.000000 0.000000 0.000000 1.731888 -0.232115 12.628005 -13.887624 -13.142444 6.095514 -48.194720 8.652544 8.721818 -5.758934 -44.357741 8.599364 0.000000 0.000000 0.000000 -1.706949 1.229488 12.005937 22.632793 16.473347 2.648624 54.146028 -7.600115 23.865342 -165.443315 74.910865 -167.961182 0.000000 0.000000 0.000000 
5.364285 36.151436 -1.657197 -179.775360 4.815316 -179.989391 -1.155160 -4.624096 9.595403 -1.257597 -1.145223 -27.044453 10.294450 6.234238 23.930724 -3.711837 0.586367 10.157590 0.000000 0.000000 0.000000 3.012645 -3.635974 8.347038 2.275001 -1.706982 -17.482030 -6.716433 3.472345 15.194968 4.149617 3.795038 4.208815 0.000000 0.000000 0.000000 1.278595 -1.250818 -1.614095 1.381168 2.404839 -4.164230 0.720586 -2.356552 14.109040 -0.037307 0.103690 0.036681 0.647162 -0.800752 15.998647 0.253161 -4.597130 13.650419 0.000000 0.000000 0.000000 1.876286 -0.226708 12.839811 -13.770157 -13.365217 6.265293 -48.622720 8.946324 8.783855 -5.426616 -43.158804 8.359446 0.000000 0.000000 0.000000 -1.540466 1.189178 12.315049 22.566030 16.791190 2.683181 54.230432 -7.330177 24.047611 -164.923332 74.915400 -167.400164 0.000000 0.000000 0.000000 
5.658694 36.104916 -1.409259 -179.764377 3.883299 179.901473 -1.167998 -4.566123 9.647521 0.259818 -1.462269 -27.894009 9.324310 6.990173 24.062569 -4.146851 0.353584 10.877257 0.000000 0.000000 0.000000 3.006387 -3.945301 8.458716 2.924003 -2.125186 -17.499206 -6.474880 2.684583 14.860834 3.423336 3.856197 4.253310 0.000000 0.000000 0.000000 1.321662 -1.157756 -1.214545 1.461360 2.495680 -4.122659 0.832321 -2.513144 14.276623 -0.046210 0.030074 -0.022162 0.751713 -0.760037 16.177593 0.515993 -4.855738 13.375761 0.000000 0.000000 0.000000 2.003001 -0.294400 12.972295 -13.688222 -13.457383 6.316245 -48.883893 9.173813 8.639359 -5.203154 -42.033995 8.262523 0.000000 0.000000 0.000000 -1.391857 1.278093 12.458449 22.592905 16.940317 2.804437 54.194703 -7.053674 24.266311 -164.370756 74.746646 -166.814147 0.000000 0.000000 0.000000 
5.926425 36.077850 -1.251717 -179.793201 3.011316 179.843607 -1.183408 -4.392271 9.647562 1.522304 -1.448175 -28.462255 8.179282 7.630873 23.908814 -4.492358 0.116831 11.655568 0.000000 0.000000 0.000000 3.011970 -4.081991 8.489452 3.509672 -2.548761 -17.344526 -6.202638 1.949968 14.499803 2.667821 3.862107 4.210709 0.000000 0.000000 0.000000 1.286532 -1.328723 -0.947391 1.552721 2.648138 -4.191103 0.984736 -2.407760 14.409778 -0.045017 -0.062354 0.030769 0.911698 -0.779374 16.159830 0.873370 -5.017483 13.205745 0.000000 0.000000 0.000000 2.149493 -0.180677 13.033641 -13.646528 -13.646424 6.278260 -49.105628 9.405057 8.392276 -5.043925 -41.090012 8.205495 0.000000 0.000000 0.000000 -1.258629 1.308303 12.489079 22.634502 17.144719 2.982392 54.068645 -6.723421 24.068198 -164.050817 74.649398 -166.529451 0.000000 0.000000 0.000000 
6.163202 36.074989 -1.160467 -179.838048 2.155200 179.833813 -1.263552 -4.281928 9.549498 2.833745 -1.593847 -28.741330 7.083996 8.170869 23.699874 -4.694585 -0.031264 12.068642 0.000000 0.000000 0.000000 3.041058 -4.242211 8.554144 4.012554 -3.052312 -17.018791 -5.883242 1.390825 14.071299 1.962129 3.842260 4.218219 0.000000 0.000000 0.000000 1.188904 -1.379956 -0.812082 1.646115 2.647123 -4.375338 1.112093 -2.411793 14.428297 -0.006713 -0.066484 -0.037463 1.029308 -0.715130 16.201207 1.210008 -5.145727 13.155005 0.000000 0.000000 0.000000 2.299213 -0.233574 13.089218 -13.762895 -13.630198 6.365840 -49.356969 9.581977 8.309183 -4.763937 -40.503445 8.049009 0.000000 0.000000 0.000000 -1.177567 1.311142 12.533032 22.685129 17.302712 3.077038 53.859877 -6.532173 23.706629 -164.018824 74.464075 -166.564449 0.000000 0.000000 0.000000 
6.372889 36.091969 -1.103939 -179.839386 1.405897 179.699285 -1.452478 -4.157035 9.525768 4.086616 -1.910936 -28.648211 5.942216 8.475601 23.265556 -4.802950 -0.177694 12.067707 0.000000 0.000000 0.000000 3.071750 -4.340371 8.628427 4.431040 -3.606800 -16.609323 -5.557657 1.023083 13.590724 1.314449 3.790932 4.203984 0.000000 0.000000 0.000000 1.097625 -1.382052 -0.644653 1.797463 2.613457 -4.630747 1.230397 -2.416945 14.467287 -0.032600 -0.074570 0.028611 1.185169 -0.786240 16.145037 1.552645 -5.234521 13.306686 0.000000 0.000000 0.000000 2.395206 -0.198279 12.992568 -13.875802 -13.547637 6.248576 -49.611195 9.753621 8.148194 -4.780098 -40.277318 8.164317 0.000000 0.000000 0.000000 -0.976017 1.229487 12.450454 22.683017 17.435327 3.254754 53.543181 -6.339420 23.250346 -163.927819 74.214773 -166.576771 0.000000 0.000000 0.000000 
6.561224 36.117870 -1.054316 -179.809866 0.788766 179.602529 -1.640167 -4.001360 9.423834 5.254187 -2.260872 -28.470071 4.840206 8.625711 22.624035 -4.803753 -0.344828 11.830679 0.000000 0.000000 0.000000 3.101946 -4.451265 8.667052 4.810461 -4.195286 -16.265120 -5.261487 0.773818 13.176454 0.723315 3.712928 4.214901 0.000000 0.000000 0.000000 1.038683 -1.338803 -0.534402 1.941889 2.522898 -4.957464 1.349400 -2.433167 14.424012 -0.125760 -0.077471 -0.022332 1.353860 -0.881116 16.099446 1.836670 -5.309978 13.460483 0.000000 0.000000 0.000000 2.570296 -0.256301 13.015375 -14.046069 -13.340751 6.203378 -49.848206 9.752254 8.148189 -4.678805 -40.411043 8.185550 0.000000 0.000000 0.000000 -0.830640 1.257727 12.381084 22.635158 17.473058 3.321588 53.015198 -6.441152 22.784094 -164.385195 74.086884 -167.153089 0.000000 0.000000 0.000000 
